<?xml version="1.0" encoding="utf-8"?>
<!-- Generator: Adobe Illustrator 16.0.0, SVG Export Plug-In . SVG Version: 6.00 Build 0)  -->
<!DOCTYPE svg PUBLIC "-//W3C//DTD SVG 1.1//EN" "http://www.w3.org/Graphics/SVG/1.1/DTD/svg11.dtd">
<svg version="1.1" id="Layer_1" xmlns="http://www.w3.org/2000/svg" xmlns:xlink="http://www.w3.org/1999/xlink" x="0px" y="0px"
	 width="841.89px" height="274.216px" viewBox="0 0 841.89 274.216" style="enable-background:new 0 0 841.89 274.216;"
	 xml:space="preserve">
<g id="root">
	<g id="cont" style="opacity:0.5;">
		<path style="fill:#F3F3F3;" d="M549.896,95.713c4.136,13.057,6.366,26.963,6.366,41.391c0,75.661-61.339,136.994-136.995,136.994
			c-75.658,0-136.994-61.333-136.994-136.994c0-75.659,61.333-136.992,136.994-136.992h136.469v71.936H419.267
			c-35.931,0-65.059,29.128-65.059,65.056c0,35.932,29.128,65.06,65.059,65.06c35.932,0,65.06-29.128,65.06-65.06
			c0-15.89-5.697-30.45-15.161-41.748L549.896,95.713z"/>
		<path style="fill:#F3F3F3;" d="M668.397,253.873v-14.481h-54.51c-2.71-2.405-5.318-4.884-7.822-7.493h62.593v-14.614h-74.773
			c-1.697-2.342-3.322-4.662-4.871-7.115h79.911v-14.351h-87.788c-1.165-2.447-2.263-5.06-3.285-7.586h86.805
			c11.069,8.728,25.049,13.818,40.241,13.818c15.887,0,21.885,0,41.746,0.704l-0.359,71.216
			c-19.502,0.543-26.963,0.016-41.387,0.016c-26.208,0-50.692-7.347-71.505-20.11h35.005V253.873z M572.962,173.939
			c-0.689-2.447-1.302-4.936-1.854-7.433h75.75c1.314,2.589,2.796,5.059,4.431,7.433H572.962z M568.722,152.124
			c-0.267-2.46-0.47-4.83-0.612-7.331h72.205c0.299,2.453,0.73,4.97,1.295,7.331H568.722z M568.071,130.369
			c0.13-2.641,0.333-5.301,0.612-7.902h72.72c-0.578,2.59-1.003,5.207-1.264,7.902H568.071z M570.88,108.315
			c0.546-2.58,1.164-4.735,1.859-7.261h77.734c-1.444,2.195-2.758,4.89-3.93,7.261H570.88z M577.623,86.266
			c0.993-2.488,2.057-5.024,3.187-7.437h88.118V64.075h-80.035c1.53-2.425,3.13-4.713,4.806-7.032h75.229v-14.37h-63.393
			c2.374-2.495,4.833-4.913,7.388-7.224h55.738V21.073h-36.808C652.996,7.725,678.046,0,704.897,0
			C780.556,0,841.89,61.333,841.89,136.992V273.46H769.95V136.992c0-35.932-29.128-65.059-65.053-65.059
			c-15.459,0-29.66,5.328-40.815,14.335h-86.459V86.266z"/>
		<path style="fill:#F3F3F3;" d="M100.323,253.873v-14.481h-54.51c-2.707-2.405-5.315-4.884-7.822-7.493h62.596v-14.614H25.811
			c-1.698-2.342-3.322-4.662-4.871-7.115h79.911v-14.351H13.062c-1.165-2.447-2.26-5.06-3.282-7.586h86.802
			c11.069,8.728,25.049,13.818,40.241,13.818c15.89,0,21.889,0,41.749,0.704l-0.359,71.216c-19.501,0.543-26.963,0.016-41.39,0.016
			c-26.204,0-50.688-7.347-71.501-20.11h35.001V253.873z M4.887,173.939c-0.686-2.447-1.301-4.936-1.85-7.433h75.747
			c1.314,2.589,2.796,5.059,4.431,7.433H4.887z M0.65,152.124c-0.27-2.46-0.473-4.83-0.612-7.331h72.205
			c0.299,2.453,0.73,4.97,1.295,7.331H0.65z M0,130.369c0.13-2.641,0.333-5.301,0.612-7.902h72.72
			c-0.581,2.59-1.006,5.207-1.267,7.902H0z M2.802,108.315c0.549-2.58,1.168-4.735,1.86-7.261h77.733
			c-1.443,2.195-2.758,4.89-3.929,7.261H2.802z M9.549,86.266c0.993-2.488,2.054-5.024,3.187-7.437h88.115V64.075H20.818
			c1.526-2.425,3.129-4.713,4.805-7.032h75.228v-14.37h-63.39c2.37-2.495,4.833-4.913,7.385-7.224h55.738V21.073H63.776
			C84.916,7.725,109.965,0,136.816,0c75.659,0,136.992,61.333,136.992,136.992V273.46h-71.933V136.992
			c0-35.932-29.128-65.059-65.056-65.059c-15.459,0-29.657,5.328-40.812,14.335H9.549V86.266z"/>
	</g>
</g>
</svg>
