<?xml version="1.0" encoding="utf-8"?>
<!-- Generator: Adobe Illustrator 16.0.0, SVG Export Plug-In . SVG Version: 6.00 Build 0)  -->
<!DOCTYPE svg PUBLIC "-//W3C//DTD SVG 1.1//EN" "http://www.w3.org/Graphics/SVG/1.1/DTD/svg11.dtd">
<svg version="1.1" id="Layer_1" xmlns="http://www.w3.org/2000/svg" xmlns:xlink="http://www.w3.org/1999/xlink" x="0px" y="0px"
	 width="512px" height="178.714px" viewBox="0 0 512 178.714" enable-background="new 0 0 512 178.714" xml:space="preserve">
<g>
	<path class="letters letter-a" fill="#999" d="M177.36,90.311c0,46.756-38.016,84.63-84.938,84.63c-46.876,0-84.907-37.874-84.907-84.63
		c0-46.733,38.031-84.597,84.907-84.597C139.344,5.714,177.36,43.578,177.36,90.311z M92.422,27.792
		c-34.635,0-62.757,27.995-62.757,62.519c0,34.516,28.123,62.541,62.757,62.541c34.635,0,62.789-28.025,62.789-62.541
		C155.211,55.788,127.058,27.792,92.422,27.792z"/>
	<path class="letters letter-dc" fill="#999" d="M169.305,147.995l18.422-14.472c12.322,19.951,31.224,19.727,31.224,19.727c4.827,0,9.125-0.621,12.75-1.844
		c3.655-1.181,6.71-2.953,9.186-5.244c2.444-2.23,4.333-4.929,5.545-8.106c1.166-3.147,1.772-6.63,1.772-10.397
		c0-4.309-0.738-7.913-2.276-10.836c-1.548-2.923-3.758-5.509-6.614-7.679c-2.887-2.158-6.284-4.165-10.337-5.906
		c-3.987-1.803-8.498-3.605-13.453-5.581c-6.777-2.688-12.796-5.379-18.097-8.099c-5.27-2.724-9.731-5.81-13.325-9.323
		c-3.641-3.478-6.33-7.516-8.25-12.078c-1.889-4.588-2.826-10.005-2.826-16.34c0-6.895,1.38-13.157,4.135-18.738
		c2.79-5.581,6.548-10.265,11.34-14.206c4.807-3.9,10.367-6.925,16.752-9.094c6.477-2.098,13.32-3.249,20.571-3.208
		c30.729,0.193,45.748,23.657,45.748,23.657l-16.856,15.948c-14.37-18.84-29.63-18.708-29.63-18.708c-4.43,0-8.396,0.59-11.813,1.71
		c-3.412,1.182-6.314,2.75-8.692,4.756c-2.444,2.006-4.236,4.399-5.463,7.281c-1.181,2.76-1.792,5.846-1.792,9.227
		c0,3.768,0.739,7.017,2.383,9.746c1.573,2.719,3.854,5.148,6.792,7.317c2.902,2.129,6.462,4.094,10.627,5.907
		c4.17,1.833,8.763,3.742,13.9,5.774c6.543,2.561,12.384,5.25,17.506,8.106c5.168,2.821,9.531,6.037,13.129,9.683
		c3.555,3.676,6.314,7.871,8.25,12.597c1.914,4.756,2.851,10.306,2.851,16.569c0,6.66-1.131,12.902-3.441,18.769
		c-2.282,5.815-5.714,10.866-10.207,15.194c-4.461,4.338-10.072,7.71-16.717,10.204c-6.681,2.464-14.39,3.584-23.184,3.748
		C185.956,174.543,169.305,147.995,169.305,147.995z"/>
	<path class="letters letter-s" fill="#999"  d="M499.426,167.944c-8.921,3.646-18.615,5.652-28.759,5.652c-34.798,0-64.301-23.626-74.893-56.51l-0.742-2.037l-0.54,1.641
		c-10.918,31.142-40.135,53.424-74.576,53.424h-44.289V9.777h49.972c32.141,2.301,58.995,24.125,69.077,53.822l0.55,1.211
		l0.549-1.313c10.592-32.843,40.125-56.5,74.893-56.5c8.696,0,16.946,1.477,24.676,4.135l6.171,23.158
		c-8.249-4.328-17.618-6.793-27.547-6.793c-33.535,0-60.706,27.934-60.706,62.386c0,34.352,27.171,62.276,60.706,62.276
		c11.009,0,21.376-3.014,30.307-8.27L499.426,167.944z M323.643,148.29c29.473-3.676,52.325-28.738,52.325-59.094
		c0-30.22-22.547-55.201-51.785-59.102h-25.001V148.29H323.643z"/>
	<path fill="#EE3E25" d="M504.945,90.311c0,15.787-12.831,28.578-28.697,28.578c-15.847,0-28.699-12.791-28.699-28.578
		c0-15.79,12.853-28.586,28.699-28.586C492.114,61.725,504.945,74.521,504.945,90.311z"/>
</g>
</svg>
